<?xml version="1.0" encoding="UTF-8"?>
<!DOCTYPE svg PUBLIC "-//W3C//DTD SVG 1.1//EN" "http://www.w3.org/Graphics/SVG/1.1/DTD/svg11.dtd">
<svg version="1.1" id="Layer_1" xmlns="http://www.w3.org/2000/svg" xmlns:xlink="http://www.w3.org/1999/xlink" x="0px" y="0px" width="21px" height="21px" viewBox="0 0 21 21" enable-background="new 0 0 21 21" xml:space="preserve">
  <g id="icon">
    <circle cx="10.5" cy="10.5" r="10" fill="none" stroke="#434A54" stroke-width="1" stroke-linecap="round" stroke-miterlimit="1" stroke-linejoin="round"/>
    <path d="M16.0979,7h-3.2798" fill="none" stroke="#434A54" stroke-width="1" stroke-linecap="round" stroke-miterlimit="1" stroke-linejoin="round"/>
    <path d="M7.0652,6.45c1.0109,0,1.7649,0.1766,2.2613,0.5217c0.4965,0.3452,0.7448,0.8457,0.7448,1.4973c0,0.2392,-0.0557,0.4716,-0.1667,0.6952c-0.1112,0.2237,-0.2642,0.4247,-0.4591,0.602c-0.1949,0.1774,-0.4262,0.3252,-0.6936,0.4429c-0.2677,0.1176,-0.5577,0.19,-0.8705,0.217c0.4081,0.0231,0.7742,0.0859,1.0983,0.1881c0.3242,0.1021,0.6008,0.2391,0.8297,0.4106c0.2289,0.1717,0.4047,0.3751,0.5271,0.6103c0.1225,0.2353,0.1836,0.4995,0.1836,0.7925c0,0.3432,-0.0691,0.6479,-0.2074,0.9139c-0.1383,0.2661,-0.3401,0.4887,-0.6053,0.6681c-0.2653,0.1793,-0.5894,0.3121,-0.9726,0.4046c-0.3832,0.0926,-0.8173,0.1357,-1.3024,0.1357H4.45v-8.1H7.0652zM4.55,6.55v3.9h2.5831c0.5078,0,0.9386,-0.039,1.2922,-0.1586c0.3537,-0.1196,0.6416,-0.2624,0.8638,-0.4496c0.2221,-0.1869,0.383,-0.3881,0.4829,-0.6138c0.0996,-0.2255,0.1496,-0.5436,0.1496,-0.7597c0,-0.6015,-0.2347,-1.0787,-0.704,-1.4104c-0.4693,-0.3316,-1.1867,-0.508,-2.1525,-0.508H4.55zM7.4324,14.45c0.4579,0,0.8682,-0.0471,1.2311,-0.1319c0.3626,-0.0848,0.6699,-0.2135,0.9214,-0.3812c0.2517,-0.1678,0.4432,-0.3791,0.5748,-0.6317c0.1315,-0.2526,0.1972,-0.5452,0.1972,-0.8769c0,-0.293,-0.0692,-0.5585,-0.2074,-0.7957c-0.1384,-0.2371,-0.3333,-0.4398,-0.585,-0.6076c-0.2516,-0.1677,-0.5576,-0.2745,-0.9181,-0.3633c-0.3605,-0.0886,-0.7606,-0.1117,-1.2004,-0.1117H4.55v3.9H7.4324z" fill="none" stroke="#434A54" stroke-width="0.9" stroke-linecap="round" stroke-miterlimit="1" stroke-linejoin="round"/>
    <path d="M16.9095,13.8853c-0.0771,0.081,-0.1916,0.1648,-0.3435,0.2516c-0.1519,0.0868,-0.331,0.1669,-0.5371,0.2401c-0.2064,0.0733,-0.432,0.133,-0.6767,0.1793c-0.2449,0.0462,-0.4966,0.0694,-0.755,0.0694c-0.458,0,-0.8683,-0.0685,-1.2309,-0.2052c-0.3628,-0.1369,-0.6699,-0.3346,-0.9216,-0.593c-0.2516,-0.2583,-0.4454,-0.5745,-0.5815,-0.9487c-0.1361,-0.374,-0.204,-0.7982,-0.204,-1.2726c0,-0.4164,0.0657,-0.7972,0.1973,-1.1424c0.1313,-0.3451,0.3218,-0.6411,0.5713,-0.888c0.2492,-0.2467,0.5542,-0.4385,0.9147,-0.5755c0.3604,-0.1367,0.7696,-0.2054,1.2276,-0.2054c0.3491,0,0.6777,0.053,0.9862,0.1591c0.3082,0.1061,0.5769,0.2632,0.8059,0.4714c0.2288,0.2082,0.409,0.4638,0.5406,0.7664c0.1315,0.3028,0.1972,0.6508,0.1972,1.0441c0,0.0193,-0.008,0.0118,-0.0238,0.0215c-0.0159,0.0096,-0.0352,-0.0075,-0.0578,-0.0075h-5.1824c-0.0046,0.1,-0.008,0.128,-0.0102,0.1781c-0.0024,0.0502,-0.0035,0.1132,-0.0035,0.1671c0,0.4706,0.0657,0.8916,0.1973,1.2521c0.1315,0.3605,0.3184,0.6661,0.5611,0.9109c0.2425,0.2449,0.5349,0.4322,0.8773,0.5596c0.3423,0.1272,0.722,0.1916,1.1392,0.1916c0.3717,0,0.6938,-0.0344,0.9658,-0.1038c0.2721,-0.0695,0.4987,-0.1463,0.6801,-0.2313c0.1814,-0.0848,0.3197,-0.1619,0.4149,-0.2312c0.0952,-0.0695,0.1519,-0.1041,0.1701,-0.1041c0.018,0,0.0362,0.0077,0.0544,0.0231L16.9095,13.8853zM16.9504,11.15c0,-0.3,-0.0611,-0.6714,-0.1836,-0.9549c-0.1224,-0.2834,-0.2913,-0.5116,-0.5067,-0.7044c-0.2154,-0.1928,-0.4682,-0.3343,-0.7582,-0.4346c-0.2903,-0.1003,-0.6009,-0.148,-0.9318,-0.148c-0.399,0,-0.7584,0.0553,-1.0779,0.1632c-0.3197,0.1081,-0.5952,0.263,-0.8263,0.4634c-0.2313,0.2005,-0.416,0.4211,-0.5543,0.7006c-0.1383,0.2797,-0.2278,0.6147,-0.2686,0.9147H16.9504z" fill="none" stroke="#434A54" stroke-width="0.9" stroke-linecap="round" stroke-miterlimit="1"/>
  </g>
</svg>
