<?xml version="1.0" ?><!DOCTYPE svg  PUBLIC '-//W3C//DTD SVG 1.1//EN'  'http://www.w3.org/Graphics/SVG/1.1/DTD/svg11.dtd'><svg height="512px" style="enable-background:new 0 0 512 512;" version="1.1" viewBox="0 0 512 512" width="512px" xml:space="preserve" xmlns="http://www.w3.org/2000/svg" xmlns:xlink="http://www.w3.org/1999/xlink"><g id="behance__x2C_"><g><path d="M492.871,374.948c0,65.451-53.089,118.502-118.565,118.502H137.168    c-65.497,0-118.566-53.051-118.566-118.502V138.009c0-65.451,53.069-118.483,118.566-118.483h237.137    c65.477,0,118.565,53.032,118.565,118.483V374.948z" style="fill:#009AD4;"/><path d="M202.035,157.756c29.063,0,52.008,16.893,52.008,51.508c0,34.576-28.041,36.774-28.041,36.774    c36.976,0,34.429,48.012,34.429,48.012c0,59.011-58.396,61.17-58.396,61.17h-53.518h-1.583h-38.249V157.756h38.249h1.583H202.035     M148.517,235.278h50.198c8.665,0,16.307-2.932,16.307-23.044c0-20.094-12.987-20.094-12.987-20.094h-6.89h-46.628V235.278     M148.517,316.768h47.381c0.54,0,1.251,0.009,2.089,0.009c0.419,0,0.87-0.002,1.346-0.009c7.603-0.192,22.058-2.525,22.058-25.127    c0-26.283-18.563-26.555-19.332-26.555c-0.016,0-0.024,0-0.024,0h-53.518V316.768 M202.035,147.879h-53.518h-1.583h-38.249    c-5.455,0-9.877,4.422-9.877,9.877v197.465c0,5.455,4.422,9.877,9.877,9.877h38.249h1.583h53.518c0.122,0,0.243-0.002,0.365-0.007    c0.69-0.025,17.099-0.728,33.542-9.644c15.646-8.483,34.29-25.979,34.367-61.175c0.13-3.307,0.671-29.9-14.576-45.978    c-1.437-1.515-2.975-2.895-4.605-4.134c6.667-6.662,12.793-17.514,12.793-34.896c0-19.173-6.337-35.09-18.325-46.031    C234.587,153.188,219.525,147.879,202.035,147.879L202.035,147.879z M158.394,202.017h36.751h6.466    c1.779,0.397,3.534,3.67,3.534,10.217c0,9.41-1.907,11.955-2.289,12.37c-0.488,0.529-1.881,0.798-4.141,0.798h-40.321V202.017    L158.394,202.017z M158.394,274.963h43.581c2.292,0.107,9.539,1.651,9.539,16.678c0,13.744-6.104,15.086-12.375,15.252    c-0.407,0.005-0.792,0.007-1.152,0.007c-0.442,0-0.847-0.003-1.208-0.005c-0.328-0.002-0.623-0.004-0.881-0.004h-37.504V274.963    L158.394,274.963z M338.315,206.969c74.395,0,63.973,83.919,63.973,83.919h-95.254c0,31.888,25.494,33.68,31.228,33.68    c0.726,0,1.135-0.028,1.135-0.028c30.549,0,29.467-20.808,29.467-20.808h32.362c0,48.564-48.675,51.485-60.394,51.485    c-1.603,0-2.517-0.055-2.517-0.055c-75.494,0-70.63-73.917-70.63-73.917S267.627,206.969,338.315,206.969 M306.668,265.086h60.383    c0,0,0.387-29.808-28.021-29.808C310.624,235.278,306.668,265.086,306.668,265.086 M338.315,197.092    c-41.675,0-61.474,23.262-70.745,42.777c-9.115,19.189-9.721,38.23-9.759,41.053c-0.201,3.913-1.232,37.63,21.034,61.41    c14.063,15.018,33.983,22.656,59.217,22.707c0.486,0.021,1.435,0.055,2.77,0.055c6.562,0,23.494-0.835,39-8.569    c14.266-7.116,31.271-22.052,31.271-52.793c0-2.17-0.699-4.176-1.885-5.805c1.538-1.515,2.588-3.537,2.872-5.822    c0.228-1.833,5.294-45.216-19.223-72.965C379.941,204.51,361.588,197.092,338.315,197.092L338.315,197.092z M320.7,255.209    c0.071-0.115,0.143-0.229,0.215-0.344c4.158-6.534,10.084-9.71,18.115-9.71c5.479,0,9.554,1.43,12.457,4.371    c1.637,1.658,2.803,3.669,3.634,5.683H320.7L320.7,255.209z M318.195,300.766h41.088c-0.301,1.061-0.406,2.183-0.297,3.353    c-0.028,0.563-0.249,2.849-1.961,4.995c-2.896,3.631-8.991,5.55-17.629,5.55c-0.019,0-0.036,0-0.053,0    c-0.238,0-0.359,0.001-0.602,0.021c-0.093,0.004-0.257,0.008-0.48,0.008C331.781,314.691,321.731,312.649,318.195,300.766    L318.195,300.766z M374.597,169.152v18.224h-75.841v-18.224H374.597 M374.597,159.275h-75.841c-5.455,0-9.877,4.422-9.877,9.877    v18.224c0,5.455,4.422,9.877,9.877,9.877h75.841c5.455,0,9.877-4.422,9.877-9.877v-18.224    C384.474,163.697,380.052,159.275,374.597,159.275L374.597,159.275z" style="fill:#004D6A;"/><path d="M148.517,355.221h53.518c0,0,58.396-2.159,58.396-61.17c0,0,2.547-48.012-34.429-48.012    c0,0,28.041-2.198,28.041-36.774c0-34.615-22.945-51.508-52.008-51.508h-53.518h-1.583h-38.249v197.465h38.249H148.517z     M148.517,192.14h46.628h6.89c0,0,12.987,0,12.987,20.094c0,20.113-7.642,23.044-16.307,23.044h-50.198V192.14z M148.517,265.086    h53.518c0,0,19.356-0.284,19.356,26.555c0,22.602-14.455,24.935-22.058,25.127c-1.429,0.02-2.625,0-3.435,0h-47.381V265.086z" style="fill:#FFFFFF;"/><path d="M338.315,206.969c-70.688,0-70.63,74.277-70.63,74.277s-4.864,73.917,70.63,73.917    c0,0,62.91,3.779,62.91-51.431h-32.362c0,0,1.082,20.808-29.467,20.808c0,0-32.362,2.275-32.362-33.651h95.254    C402.288,290.889,412.71,206.969,338.315,206.969z M306.668,265.086c0,0,3.956-29.808,32.362-29.808    c28.407,0,28.021,29.808,28.021,29.808H306.668z" style="fill:#FFFFFF;"/><rect height="18.224" style="fill:#FFFFFF;" width="75.841" x="298.756" y="169.152"/><path d="M148.517,355.221h53.518c0,0,58.396-2.159,58.396-61.17c0,0,2.547-48.012-34.429-48.012    c0,0,28.041-2.198,28.041-36.774c0-34.615-22.945-51.508-52.008-51.508h-53.518h-1.583h-38.249v197.465h38.249H148.517z     M148.517,192.14h46.628h6.89c0,0,12.987,0,12.987,20.094c0,20.113-7.642,23.044-16.307,23.044h-50.198V192.14z M148.517,265.086    h53.518c0,0,19.356-0.284,19.356,26.555c0,22.602-14.455,24.935-22.058,25.127c-1.429,0.02-2.625,0-3.435,0h-47.381V265.086z" style="fill:#FFFFFF;"/><path d="M338.315,206.969c-70.688,0-70.63,74.277-70.63,74.277s-4.864,73.917,70.63,73.917    c0,0,62.91,3.779,62.91-51.431h-32.362c0,0,1.082,20.808-29.467,20.808c0,0-32.362,2.275-32.362-33.651h95.254    C402.288,290.889,412.71,206.969,338.315,206.969z M306.668,265.086c0,0,3.956-29.808,32.362-29.808    c28.407,0,28.021,29.808,28.021,29.808H306.668z" style="fill:#FFFFFF;"/><rect height="18.224" style="fill:#FFFFFF;" width="75.841" x="298.756" y="169.152"/><path d="M364.039,478.061H147.415c-62.448,0-113.253-50.818-113.253-113.283V148.179    c0-62.454,50.805-113.263,113.253-113.263h216.624c62.459,0,113.272,50.81,113.272,113.263v216.599    C477.312,427.242,426.498,478.061,364.039,478.061z M147.415,44.818c-56.988,0-103.351,46.367-103.351,103.36v216.599    c0,57.004,46.363,103.381,103.351,103.381h216.624c56.998,0,103.37-46.377,103.37-103.381V148.179    c0-56.993-46.372-103.36-103.37-103.36H147.415z" style="fill:#004D6A;"/></g></g><g id="Layer_1"/></svg>