<?xml version="1.0" encoding="utf-8"?>
<!-- Generator: Adobe Illustrator 24.0.2, SVG Export Plug-In . SVG Version: 6.00 Build 0)  -->
<svg version="1.1" id="Layer_1" xmlns="http://www.w3.org/2000/svg" xmlns:xlink="http://www.w3.org/1999/xlink" x="0px" y="0px"
	 viewBox="0 0 960 560" style="enable-background:new 0 0 960 560;" xml:space="preserve">
<style type="text/css">
	.st0{fill:none;}
	.st1{fill:none;stroke:#FFFFFF;stroke-width:9;stroke-linecap:round;stroke-miterlimit:10;}
</style>
<path class="st0" d="M510,66"/>
<g>
	<path class="st1" d="M70.37,46.18c-1.18,13.2-1.87,24.22-2.3,32.31c-0.27,5.11-0.7,13.28-0.98,24.17
		c-0.39,15.46-0.03,18.46-0.72,27.16c-0.68,8.49-1.72,14.15-3.14,22.34c-1.81,10.42-4.33,25.46-7.27,44.77"/>
	<path class="st1" d="M56.49,131.65c2.14,0.76,5.3,1.71,9.22,2.23c5.56,0.74,9.91,0.25,12.04-0.01c15.2-1.89,34.54-6.92,34.54-6.92
		c6.88-1.79,16.95-4.21,29.56-6.5"/>
	<path class="st1" d="M137.32,66.63c0.33,5.97,0.63,15.02,0.19,26.08c-0.4,10.15-1.11,13.96-1.89,25.25
		c-1.25,18.09-0.36,21.59-1.13,34.22c-0.57,9.28-1.97,22.52-5.78,38.62"/>
	<path class="st1" d="M179.65,140.34c-0.64-0.99-2-2.76-4.32-3.65c-3.11-1.2-6.03-0.09-7.97,0.67c-6.09,2.4-9.58,7.19-13.48,12.68
		c-2.94,4.13-4.61,7.49-6.14,10.55c-3.5,7.03-4.3,10.84-4.52,11.92c-0.18,0.94-0.63,3.42-0.73,6.67c-0.08,2.69,0.11,5.03,0.37,6.91
		c2.11,4.59,4.22,5.04,4.95,5.1c2.94,0.26,5.46-3.71,9.21-9.81c1.7-2.77,3.93-6.39,6.05-11.55c0.86-2.09,1.98-4.52,4.23-9.39
		c1.37-2.96,2.03-4.33,2.65-4.24c0.95,0.13,0.8,3.5,1.67,7.89c0.55,2.8,1.63,8.29,5.08,12.62c0.56,0.7,4.92,6.04,11.63,7.05
		c7.78,1.17,14.13-4.17,19.34-8.65c8.9-7.66,12.94-15.88,18.74-27.67c5.76-11.71,8.84-21.77,10.6-28.99
		c1.68-6.9,2.29-11.75,2.73-15.28c0.35-4.64,0.48-8.58,0.53-11.59c0.07-4.89-0.06-8.16-1.01-11.96c-0.44-1.76-1.26-4.5-3.58-6.72
		c-0.79-0.76-1.8-1.7-3.16-1.74c-1.87-0.06-3.36,1.61-4.73,3.41c-2.88,3.78-4.61,7.26-6.14,10.55c-2.25,4.87-3.65,7.92-4.97,12.46
		c-0.6,2.07-0.94,3.59-1.49,6.15c-2.4,11.2-3.56,17.36-3.56,17.36c-2.57,13.72-3.86,20.67-4.42,24.96
		c-0.79,6.12-1.18,9.18-1.36,13.66c-0.63,16.09,2.49,24.24,3.8,27.28c2.5,5.79,4.95,8.13,6.82,9.46c1.04,0.75,4.82,3.45,9.3,3.23
		c2.85-0.14,6.07-1.47,15.02-12.3c7.44-9.01,7.23-10.53,15.35-20.36c3.09-3.75,9.11-10.79,9.13-10.8c0.85-1.95,2.04-4.4,2.65-4.24
		c0.74,0.2-0.08,4.01-0.16,10.05c-0.02,1.88,0.4,6.26,1.26,14.95c0.73,7.46,0.87,8.43,1.84,9.88c1.81,2.72,5.34,5.32,9.47,5.22
		c2.42-0.05,4.23-0.99,4.9-1.42c0.51-0.32,2.34-1.55,4.56-5.4c0.55-0.94,2.16-3.86,3.31-8.31c0.58-2.23,1.18-5.34,1.24-9.14"/>
	<path class="st1" d="M284.09,105.45c1.07,0.43,2.66,1.22,4.24,2.65c1.9,1.73,2.91,3.6,3.41,4.73"/>
</g>
</svg>
